<?xml version="1.0" standalone="no"?>
<!DOCTYPE svg PUBLIC "-//W3C//DTD SVG 20010904//EN"
 "http://www.w3.org/TR/2001/REC-SVG-20010904/DTD/svg10.dtd">
<svg version="1.0" xmlns="http://www.w3.org/2000/svg"
 width="715.000000pt" height="221.000000pt" viewBox="0 0 715.000000 221.000000"
 preserveAspectRatio="xMidYMid meet">

<g transform="translate(0.000000,221.000000) scale(0.100000,-0.100000)"
fill="#000000" stroke="none">
<path d="M3655 2000 c-372 -32 -748 -109 -1057 -218 -129 -45 -270 -103 -341
-139 -55 -27 -21 -30 -347 26 -241 41 -408 55 -570 47 -221 -11 -435 -49 -435
-77 0 -11 14 -13 70 -9 39 3 167 5 285 4 178 0 235 -4 334 -22 144 -27 326
-85 500 -159 l128 -54 81 47 c469 272 974 400 1715 434 256 11 573 1 912 -30
209 -19 601 -72 668 -90 24 -6 32 -6 29 3 -2 7 -19 13 -38 15 -35 3 -342 65
-414 83 -22 6 -57 15 -78 20 -21 6 -35 14 -32 19 10 16 -230 59 -475 86 -168
18 -778 27 -935 14z m-1252 -400 c-100 -49 -191 -90 -201 -90 -29 0 -200 64
-181 68 9 2 47 -4 83 -13 90 -20 121 -19 186 9 144 62 276 116 285 116 5 0
-72 -40 -172 -90z"/>
<path d="M6086 1845 c-57 -20 -102 -70 -148 -162 -69 -138 -61 -227 25 -313
76 -76 230 -137 315 -124 62 9 130 59 169 124 73 121 91 225 54 299 -38 74
-143 149 -246 175 -72 19 -118 20 -169 1z m195 -115 c96 -49 139 -97 139 -160
0 -48 -74 -186 -109 -205 -70 -36 -192 -3 -272 74 -41 40 -49 53 -49 84 0 48
64 181 104 214 27 22 37 25 86 20 31 -2 76 -15 101 -27z"/>
<path d="M4095 1774 c-252 -14 -575 -70 -747 -130 -103 -36 -203 -82 -196 -90
3 -2 54 7 114 21 111 25 326 56 514 76 58 6 269 13 470 16 301 4 425 1 706
-16 357 -22 620 -27 594 -11 -37 21 -473 91 -715 115 -155 15 -598 27 -740 19z"/>
<path d="M1315 1329 c-341 -24 -676 -164 -883 -370 -87 -87 -91 -109 -22 -122
25 -4 93 -6 151 -4 117 4 153 18 206 81 144 171 540 256 738 159 54 -27 115
-97 115 -132 0 -6 -94 -11 -247 -13 -236 -3 -251 -4 -300 -27 -66 -29 -123
-90 -123 -131 0 -35 32 -68 74 -75 17 -4 204 -5 416 -3 l385 3 60 28 c79 37
112 70 130 131 29 97 14 201 -40 272 -23 31 -27 32 -113 36 -70 3 -96 9 -128
28 -51 31 -92 69 -110 102 -12 23 -22 27 -71 33 -113 11 -129 12 -238 4z"/>
<path d="M5210 1300 c-114 -75 -369 -78 -526 -6 l-56 26 -96 -21 c-109 -24
-187 -51 -282 -99 -153 -77 -294 -199 -341 -297 -20 -42 -20 -46 -5 -61 14
-14 39 -17 154 -17 163 0 184 9 236 89 40 63 129 123 232 157 63 20 94 23 379
28 l310 6 57 28 c92 45 128 113 86 161 -35 41 -91 43 -148 6z"/>
<path d="M5783 1305 c-38 -23 -51 -42 -123 -186 -45 -89 -79 -163 -76 -167 4
-3 124 -63 269 -133 l262 -127 23 45 c13 25 22 46 20 48 -2 1 -45 22 -96 45
-51 24 -91 48 -89 53 2 6 82 60 179 121 97 61 179 114 182 117 3 3 -19 16 -50
28 l-55 23 -107 -70 c-58 -39 -107 -70 -108 -69 -2 1 6 28 17 60 33 99 5 171
-84 212 -66 32 -111 31 -164 0z m138 -104 c16 -16 29 -37 29 -45 0 -29 -100
-218 -113 -213 -93 39 -117 51 -116 61 0 6 22 54 47 106 62 124 98 146 153 91z"/>
<path d="M2985 1304 c-301 -54 -561 -180 -729 -353 -65 -68 -81 -103 -50 -115
9 -3 72 -6 140 -6 149 0 175 9 253 83 141 135 363 210 564 192 113 -10 165
-28 227 -81 64 -55 86 -64 150 -64 92 0 187 44 230 107 30 44 20 75 -37 119
l-42 32 -47 -24 c-78 -40 -140 -34 -327 30 -87 30 -173 64 -191 75 -38 24 -35
24 -141 5z"/>
<path d="M4557 889 c-147 -24 -245 -152 -164 -213 27 -20 40 -21 300 -21 263
0 274 1 323 23 58 26 120 85 129 122 8 35 -26 78 -68 84 -60 9 -472 13 -520 5z"/>
<path d="M5555 811 c-40 -18 -76 -69 -145 -208 -38 -78 -70 -146 -70 -151 0
-4 19 -17 43 -29 l42 -21 75 152 c63 126 80 153 103 161 36 12 78 -10 91 -48
9 -23 4 -41 -32 -113 -55 -110 -61 -154 -30 -214 20 -39 34 -51 113 -91 127
-66 128 -66 148 -24 9 20 17 40 17 46 0 5 -39 29 -87 52 -122 59 -126 70 -72
182 69 142 62 226 -23 283 -43 28 -134 40 -173 23z"/>
<path d="M333 725 c-41 -18 -53 -42 -53 -108 0 -150 106 -267 301 -330 118
-39 235 -49 519 -45 241 3 258 4 305 26 118 54 156 140 77 175 -17 7 -127 13
-307 17 -315 6 -362 15 -437 79 -47 40 -68 84 -68 140 0 30 -5 43 -19 51 -30
15 -279 12 -318 -5z"/>
<path d="M2173 719 c-17 -5 -42 -22 -53 -37 -19 -23 -21 -36 -18 -92 11 -146
110 -251 297 -315 231 -78 574 -54 871 61 180 71 250 123 250 190 0 50 -35 69
-130 69 -70 0 -83 -4 -185 -52 -167 -79 -206 -88 -375 -88 -145 0 -146 0 -213
33 -82 41 -115 84 -123 163 -4 31 -13 59 -22 67 -19 14 -249 15 -299 1z"/>
<path d="M3893 720 c-65 -15 -81 -36 -168 -212 -47 -93 -85 -180 -85 -192 0
-57 101 -95 199 -75 66 13 138 48 167 81 22 23 120 213 165 317 l23 54 -23 18
c-20 16 -40 19 -135 18 -61 -1 -126 -4 -143 -9z"/>
</g>
</svg>
